HIERARCHY
ROOT Hips
{
	OFFSET 48.130001 -17.162916 95.103897
	CHANNELS 6 Xposition Yposition Zposition Xrotation Yrotation Zrotation
	JOINT spine
	{
		OFFSET 0.000000 -0.458069 7.965683
		CHANNELS 3 Xrotation Yrotation Zrotation
		JOINT spine1
		{
			OFFSET 0.000000 -0.000002 10.243103
			CHANNELS 3 Xrotation Yrotation Zrotation
			JOINT spine2
			{
				OFFSET 0.000000 -0.000002 9.814751
				CHANNELS 3 Xrotation Yrotation Zrotation
				JOINT Neck
				{
					OFFSET 0.000000 -1.201384 25.198601
					CHANNELS 3 Xrotation Yrotation Zrotation
					JOINT Head
					{
						OFFSET 0.000000 0.000000 7.613144
						CHANNELS 3 Xrotation Yrotation Zrotation
						End Site
						{
							OFFSET 0.000000 6.077316 18.428101
						}
					}
				}
				JOINT RightShoulder
				{
					OFFSET -4.132702 0.575451 10.599205
					CHANNELS 3 Xrotation Yrotation Zrotation
					JOINT RightArm
					{
						OFFSET 0.000000 -0.000004 13.901794
						CHANNELS 3 Xrotation Yrotation Zrotation
						JOINT RightArmRoll
						{
							OFFSET 0.000000 0.000000 7.017883
							CHANNELS 3 Xrotation Yrotation Zrotation
							JOINT RightForeArm
							{
								OFFSET 0.000000 -0.000004 20.440598
								CHANNELS 3 Xrotation Yrotation Zrotation
								JOINT RightForeArmRoll
								{
									OFFSET 0.000000 -0.000002 7.875153
									CHANNELS 3 Xrotation Yrotation Zrotation
									JOINT RightHand
									{
										OFFSET 0.000000 -0.000002 15.803696
										CHANNELS 3 Xrotation Yrotation Zrotation
										End Site
										{
											OFFSET 0.000000 0.000000 0.100006
										}
									}
								}
							}
						}
					}
				}
				JOINT LeftShoulder
				{
					OFFSET 4.132702 0.575451 10.599205
					CHANNELS 3 Xrotation Yrotation Zrotation
					JOINT LeftArm
					{
						OFFSET 0.000000 -0.000004 13.901794
						CHANNELS 3 Xrotation Yrotation Zrotation
						JOINT LeftArmRoll
						{
							OFFSET 0.000000 0.000000 7.017883
							CHANNELS 3 Xrotation Yrotation Zrotation
							JOINT LeftForeArm
							{
								OFFSET 0.000000 -0.000004 20.440598
								CHANNELS 3 Xrotation Yrotation Zrotation
								JOINT LeftForeArmRoll
								{
									OFFSET 0.000000 -0.000002 7.875153
									CHANNELS 3 Xrotation Yrotation Zrotation
									JOINT LeftHand
									{
										OFFSET 0.000000 -0.000002 15.803696
										CHANNELS 3 Xrotation Yrotation Zrotation
										End Site
										{
											OFFSET 0.000000 0.000000 0.100006
										}
									}
								}
							}
						}
					}
				}
			}
		}
	}
	JOINT RightUpLeg
	{
		OFFSET -7.060482 1.086100 -1.294701
		CHANNELS 3 Xrotation Yrotation Zrotation
		JOINT RightUpLegRoll
		{
			OFFSET 0.000000 -0.000004 18.530800
			CHANNELS 3 Xrotation Yrotation Zrotation
			JOINT RightLeg
			{
				OFFSET 0.000000 0.000004 -22.947601
				CHANNELS 3 Xrotation Yrotation Zrotation
				JOINT RightLegRoll
				{
					OFFSET 0.000000 -0.000004 23.022598
					CHANNELS 3 Xrotation Yrotation Zrotation
					JOINT RightFoot
					{
						OFFSET 0.000000 -0.000002 19.162506
						CHANNELS 3 Xrotation Yrotation Zrotation
						JOINT RightToeBase
						{
							OFFSET 0.000000 -0.000004 16.018799
							CHANNELS 3 Xrotation Yrotation Zrotation
							End Site
							{
								OFFSET 0.006790 0.894205 7.757828
							}
						}
					}
				}
			}
		}
	}
	JOINT LeftUpLeg
	{
		OFFSET 7.060482 1.086100 -1.294701
		CHANNELS 3 Xrotation Yrotation Zrotation
		JOINT LeftUpLegRoll
		{
			OFFSET 0.000000 -0.000004 18.530899
			CHANNELS 3 Xrotation Yrotation Zrotation
			JOINT LeftLeg
			{
				OFFSET 0.000000 -0.000004 22.947502
				CHANNELS 3 Xrotation Yrotation Zrotation
				JOINT LeftLegRoll
				{
					OFFSET 0.000000 -0.000004 23.235504
					CHANNELS 3 Xrotation Yrotation Zrotation
					JOINT LeftFoot
					{
						OFFSET 0.000000 -0.000002 18.949600
						CHANNELS 3 Xrotation Yrotation Zrotation
						JOINT LeftToeBase
						{
							OFFSET 0.000000 -0.000004 16.018799
							CHANNELS 3 Xrotation Yrotation Zrotation
							End Site
							{
								OFFSET -0.030430 0.894206 7.757828
							}
						}
					}
				}
			}
		}
	}
}
MOTION
Frames: 6
Frame Time: 0.041667
58.929100 -6.674625 126.540001 2.393221 7.540903 1.007759 -0.891553 -1.191197 -0.053202 2.218718 -2.381854 -0.113105 3.864366 -2.383047 -0.084548 4.691246 -4.737937 -1.071538 -5.816859 1.683323 -0.620188 -12.970530 -61.620956 -15.423515 -329.176350 -99.572936 -300.447072 -0.000000 -0.000004 0.000001 0.265442 -6.418154 -0.144011 -0.000005 0.000003 -3.013730 -5.000189 -7.999511 0.000065 0.312837 54.183491 -0.952206 -21.896017 101.639055 16.789761 0.000002 -0.000001 -0.000003 21.102781 18.803796 -3.642451 -0.000001 -0.000010 3.008430 -5.000186 7.999980 -0.000030 -7.500949 -179.292111 -1.381584 -179.999991 0.000004 -1.088003 163.374040 -5.311659 -1.493418 -0.000002 -0.000000 0.264829 68.438885 6.917594 2.119516 25.456952 -7.355616 0.000001 -10.444461 165.819057 -2.891083 -0.000005 -0.000005 -1.053240 -17.893820 1.708633 0.779612 -0.000003 -0.000003 -0.304854 70.322760 -6.896785 -2.024476 25.456948 7.355611 -0.000010 
58.909096 -6.673483 126.560989 2.425724 7.687758 1.020289 -0.896467 -1.224591 -0.054114 2.208868 -2.448612 -0.115251 3.854559 -2.449823 -0.085893 4.794848 -4.697995 -1.064592 -5.854289 1.677142 -0.620827 -12.955199 -61.602337 -15.404935 -328.688374 -99.707675 -299.833748 -0.000001 -0.000005 0.000004 0.217993 -6.342786 -0.153756 -0.000004 0.000002 -3.014460 -5.000189 -7.999512 0.000066 0.298661 54.161129 -0.938174 -21.111000 101.644211 16.071749 0.000002 -0.000002 -0.000003 21.193469 18.843947 -3.668317 -0.000003 -0.000009 3.008430 -5.000186 7.999980 -0.000030 -7.482260 -179.457661 -1.458738 -179.999991 0.000004 -1.084001 163.459336 -5.330315 -1.486339 -0.000001 -0.000000 0.264472 68.425907 6.917504 2.121111 25.456955 -7.355617 0.000000 -10.511109 165.640680 -2.931385 -0.000004 -0.000004 -1.050660 -17.900351 1.669457 0.774261 -0.000004 -0.000003 -0.305620 70.329734 -6.895430 -2.027407 25.456948 7.355613 -0.000011 
58.545097 -6.691285 126.566986 2.459069 7.812918 1.030555 -0.901303 -1.253285 -0.054739 2.199184 -2.506005 -0.116802 3.844918 -2.507231 -0.086755 4.893759 -4.664759 -1.058369 -5.888740 1.675915 -0.621406 -12.946399 -61.593143 -15.394317 -328.194333 -99.833883 -299.216517 -0.000001 -0.000007 0.000001 0.174113 -6.270443 -0.163202 -0.000003 0.000001 -3.015218 -5.000190 -7.999513 0.000066 0.288585 54.134956 -0.929621 -20.302309 101.652886 15.330363 0.000002 0.000000 -0.000003 21.290255 18.882237 -3.694773 -0.000002 -0.000009 3.008430 -5.000184 7.999979 -0.000030 -7.470810 -179.594469 -1.523317 -179.999991 0.000004 -1.082006 163.536012 -5.347770 -1.480737 -0.000002 -0.000000 0.264060 68.416933 6.917479 2.122168 25.456957 -7.355616 -0.000000 -10.569877 165.490620 -2.961219 -0.000004 -0.000004 -1.048580 -17.895304 1.632789 0.768700 -0.000004 -0.000003 -0.306003 70.332247 -6.894372 -2.029865 25.456943 7.355610 -0.000010 
58.598797 -6.672395 126.581001 2.493042 7.911838 1.038212 -0.905928 -1.276320 -0.054986 2.189934 -2.552057 -0.117569 3.835693 -2.553286 -0.086970 4.986909 -4.639459 -1.053017 -5.919575 1.680168 -0.621956 -12.945084 -61.594899 -15.392815 -327.690756 -99.950195 -298.591664 -0.000000 -0.000006 0.000001 0.132797 -6.201109 -0.172292 -0.000004 0.000001 -3.016033 -5.000190 -7.999510 0.000065 0.283223 54.104374 -0.927350 -19.472442 101.664388 14.568420 0.000002 -0.000001 -0.000003 21.393577 18.918702 -3.721929 -0.000002 -0.000009 3.008430 -5.000188 7.999979 -0.000030 -7.468018 -179.696594 -1.572141 -179.999991 0.000005 -1.079001 163.601172 -5.363954 -1.476871 -0.000002 0.000000 0.263608 68.412930 6.917447 2.122713 25.456953 -7.355616 0.000001 -10.618698 165.373647 -2.978768 -0.000005 -0.000004 -1.047101 -17.876796 1.599311 0.762955 -0.000004 -0.000003 -0.305943 70.329249 -6.893647 -2.031825 25.456947 7.355610 -0.000010 
58.465298 -6.743245 126.589989 2.527402 7.979999 1.042955 -0.910206 -1.292697 -0.054766 2.181380 -2.584798 -0.117357 3.827153 -2.586029 -0.086365 5.073260 -4.623276 -1.048641 -5.946138 1.690461 -0.622510 -12.952183 -61.609222 -15.401585 -327.173629 -100.055161 -297.954490 0.000001 -0.000003 0.000003 0.093032 -6.134787 -0.180934 -0.000005 0.000003 -3.016869 -5.000188 -7.999511 0.000067 0.283199 54.069072 -0.932165 -18.622393 101.678929 13.787194 0.000002 -0.000000 -0.000003 21.503852 18.953261 -3.749826 0.000001 -0.000009 3.008430 -5.000186 7.999979 -0.000030 -7.475311 -179.757083 -1.602184 -179.999991 0.000005 -1.078003 163.651906 -5.378785 -1.473059 -0.000003 0.000000 0.263130 68.414508 6.917414 2.122608 25.456957 -7.355617 0.000001 -10.655704 165.296547 -2.982524 -0.000005 -0.000005 -1.046321 -17.843017 1.569723 0.757069 -0.000004 -0.000003 -0.305371 70.320090 -6.893291 -2.033233 25.456947 7.355612 -0.000011 
58.413795 -6.719384 126.586983 2.561931 8.012867 1.044476 -0.914007 -1.301434 -0.053990 2.173793 -2.602278 -0.115971 3.819589 -2.603482 -0.084769 5.151734 -4.617435 -1.045390 -5.967760 1.707313 -0.623107 -12.968637 -61.637560 -15.421754 -326.638525 -100.147314 -297.300704 -0.000000 -0.000003 0.000004 0.053801 -6.071499 -0.189046 -0.000003 0.000003 -3.017747 -5.000189 -7.999512 0.000064 0.289119 54.028555 -0.944859 -17.754542 101.695745 12.989396 0.000002 0.000001 -0.000003 21.621215 18.986083 -3.778484 -0.000003 -0.000009 3.008430 -5.000187 7.999980 -0.000030 -7.494113 -179.770961 -1.610199 -179.999991 0.000004 -1.077006 163.685401 -5.392192 -1.471548 -0.000002 -0.000000 0.262640 68.422390 6.917398 2.121810 25.456957 -7.355616 0.000001 -10.678894 165.265115 -2.970833 -0.000005 -0.000004 -1.046340 -17.791975 1.544691 0.751052 -0.000004 -0.000003 -0.304222 70.303861 -6.893372 -2.033853 25.456947 7.355611 -0.000011 
